<svg version="1.1" id="Layer_1" xmlns="http://www.w3.org/2000/svg" xmlns:xlink="http://www.w3.org/1999/xlink" x="0px" y="0px"
	 width="100%" viewBox="0 0 1318 1052" enable-background="new 0 0 1318 1052" xml:space="preserve">
<path fill="#000000" opacity="1.000000" stroke="none" 
	d="
M679.000000,1053.000000 
	C452.666656,1053.000000 226.833328,1053.000000 1.000000,1053.000000 
	C1.000000,702.333313 1.000000,351.666656 1.000000,1.000000 
	C440.333344,1.000000 879.666687,1.000000 1319.000000,1.000000 
	C1319.000000,351.666656 1319.000000,702.333313 1319.000000,1053.000000 
	C1105.833374,1053.000000 892.666687,1053.000000 679.000000,1053.000000 
M491.301392,339.499908 
	C491.301392,481.328796 491.294586,623.157715 491.330170,764.986572 
	C491.331390,769.809387 491.397217,774.682007 492.055389,779.445374 
	C493.893860,792.750122 501.759491,801.210999 514.452209,803.643188 
	C518.521362,804.422852 522.724792,804.843750 526.867371,804.847839 
	C599.031799,804.918457 671.196350,804.951416 743.360718,804.859070 
	C760.263733,804.837402 774.935364,798.978210 786.938293,786.835022 
	C794.319397,779.367798 801.635864,771.827698 809.238098,764.590027 
	C824.099548,750.441406 830.877136,733.315979 830.793701,712.735840 
	C830.503845,641.239136 830.681946,569.740540 830.681763,498.242706 
	C830.681641,425.578217 830.632874,352.913666 830.714233,280.249268 
	C830.734924,261.799316 824.769653,246.045013 811.297302,233.184097 
	C803.343018,225.590805 795.490234,217.867340 787.973083,209.845200 
	C774.971924,195.970627 759.154846,189.940628 740.186951,190.013565 
	C670.023438,190.283463 599.858215,190.117828 529.693665,190.131241 
	C526.528809,190.131851 523.355347,190.160706 520.200439,190.383148 
	C503.246460,191.578629 493.670441,200.691696 491.682251,217.524841 
	C491.390106,219.998123 491.318665,222.509460 491.317200,225.003311 
	C491.295044,262.835480 491.301636,300.667694 491.301392,339.499908 
z"/>
<path fill="#FDFDFD" opacity="1.000000" stroke="none" 
	d="
M491.301422,338.999878 
	C491.301636,300.667694 491.295044,262.835480 491.317200,225.003311 
	C491.318665,222.509460 491.390106,219.998123 491.682251,217.524841 
	C493.670441,200.691696 503.246460,191.578629 520.200439,190.383148 
	C523.355347,190.160706 526.528809,190.131851 529.693665,190.131241 
	C599.858215,190.117828 670.023438,190.283463 740.186951,190.013565 
	C759.154846,189.940628 774.971924,195.970627 787.973083,209.845200 
	C795.490234,217.867340 803.343018,225.590805 811.297302,233.184097 
	C824.769653,246.045013 830.734924,261.799316 830.714233,280.249268 
	C830.632874,352.913666 830.681641,425.578217 830.681763,498.242706 
	C830.681946,569.740540 830.503845,641.239136 830.793701,712.735840 
	C830.877136,733.315979 824.099548,750.441406 809.238098,764.590027 
	C801.635864,771.827698 794.319397,779.367798 786.938293,786.835022 
	C774.935364,798.978210 760.263733,804.837402 743.360718,804.859070 
	C671.196350,804.951416 599.031799,804.918457 526.867371,804.847839 
	C522.724792,804.843750 518.521362,804.422852 514.452209,803.643188 
	C501.759491,801.210999 493.893860,792.750122 492.055389,779.445374 
	C491.397217,774.682007 491.331390,769.809387 491.330170,764.986572 
	C491.294586,623.157715 491.301392,481.328796 491.301422,338.999878 
M752.707397,325.500092 
	C752.707703,318.501556 752.742859,311.502777 752.701904,304.504486 
	C752.549377,278.425964 742.265137,268.125305 716.220825,268.095490 
	C679.395264,268.053314 642.569397,268.022186 605.744263,268.158203 
	C600.623230,268.177124 595.411621,268.738434 590.406555,269.814240 
	C580.655579,271.910156 574.047485,278.012024 571.356384,287.610931 
	C570.026855,292.353119 569.365784,297.441132 569.361755,302.373444 
	C569.258484,430.679810 569.280884,558.986267 569.287537,687.292725 
	C569.287720,690.291565 569.248962,693.296326 569.412903,696.288208 
	C570.492493,715.992188 580.721924,726.579102 600.392273,726.752686 
	C640.713989,727.108582 681.043335,727.110718 721.364929,726.751343 
	C740.949890,726.576782 750.954590,716.463623 752.486877,696.915649 
	C752.733765,693.765564 752.698975,690.588867 752.699280,687.424500 
	C752.708923,567.116394 752.707336,446.808258 752.707397,325.500092 
z"/>
<path fill="#010101" opacity="1.000000" stroke="none" 
	d="
M752.707397,326.000122 
	C752.707336,446.808258 752.708923,567.116394 752.699280,687.424500 
	C752.698975,690.588867 752.733765,693.765564 752.486877,696.915649 
	C750.954590,716.463623 740.949890,726.576782 721.364929,726.751343 
	C681.043335,727.110718 640.713989,727.108582 600.392273,726.752686 
	C580.721924,726.579102 570.492493,715.992188 569.412903,696.288208 
	C569.248962,693.296326 569.287720,690.291565 569.287537,687.292725 
	C569.280884,558.986267 569.258484,430.679810 569.361755,302.373444 
	C569.365784,297.441132 570.026855,292.353119 571.356384,287.610931 
	C574.047485,278.012024 580.655579,271.910156 590.406555,269.814240 
	C595.411621,268.738434 600.623230,268.177124 605.744263,268.158203 
	C642.569397,268.022186 679.395264,268.053314 716.220825,268.095490 
	C742.265137,268.125305 752.549377,278.425964 752.701904,304.504486 
	C752.742859,311.502777 752.707703,318.501556 752.707397,326.000122 
z"/>
</svg>